<svg width="132" height="46" viewBox="0 0 132 46" fill="none" xmlns="http://www.w3.org/2000/svg">
    <rect x="63" y="19" width="68.5" height="23" fill="#FF4141" />
    <path d="M2 20L11 23.7174V39" stroke="#9C2C2C" stroke-width="3" stroke-linecap="round" />
    <path d="M2 35.6027V13L16 19.5753V43L2 35.6027Z" stroke="#FF4141" stroke-width="3" stroke-linecap="round" />
    <path
        d="M28.76 32.896V31H33.656V32.896H28.76ZM31.472 35.896V31.072H33.656V35.896H31.472ZM24.2 35.896V27.184H26.384V35.896H24.2ZM24.2 27.184C24.2 26.304 24.4 25.528 24.8 24.856C25.2 24.168 25.76 23.64 26.48 23.272C27.2 22.888 28.024 22.696 28.952 22.696V24.592C28.152 24.592 27.52 24.816 27.056 25.264C26.608 25.712 26.384 26.352 26.384 27.184H24.2ZM24.2 35.872H26.384C26.384 36.704 26.608 37.352 27.056 37.816C27.52 38.264 28.152 38.488 28.952 38.488V40.384C28.024 40.384 27.2 40.192 26.48 39.808C25.76 39.424 25.2 38.896 24.8 38.224C24.4 37.552 24.2 36.768 24.2 35.872ZM31.808 27.808C31.712 26.8 31.408 26.016 30.896 25.456C30.4 24.88 29.744 24.592 28.928 24.592V22.696C30.288 22.696 31.392 23.112 32.24 23.944C33.104 24.776 33.624 25.928 33.8 27.4L31.808 27.808ZM33.656 35.872C33.656 36.768 33.456 37.552 33.056 38.224C32.656 38.896 32.096 39.424 31.376 39.808C30.672 40.192 29.856 40.384 28.928 40.384V38.488C29.728 38.488 30.352 38.264 30.8 37.816C31.248 37.352 31.472 36.704 31.472 35.872H33.656ZM36.7972 40V23.08H38.9812V40H36.7972ZM43.8599 32.536V30.592H48.7079V32.536H43.8599ZM42.2759 23.08H44.4599V40H42.2759V23.08ZM43.7399 23.08H49.9079V24.976H43.7399V23.08ZM50.8784 24.976V23.08H60.8384V24.976H50.8784ZM54.7664 40V23.08H56.9504V40H54.7664ZM68.6998 24.976V23.08H71.1478V24.976H68.6998ZM68.6998 33.496V31.6H71.1478V33.496H68.6998ZM73.6918 29.008V27.568H75.8758V29.008H73.6918ZM75.8758 27.568H73.6918C73.6918 26.736 73.4598 26.096 72.9958 25.648C72.5478 25.2 71.9238 24.976 71.1238 24.976V23.08C72.0678 23.08 72.8918 23.272 73.5958 23.656C74.3158 24.024 74.8758 24.552 75.2758 25.24C75.6758 25.912 75.8758 26.688 75.8758 27.568ZM75.8758 28.984C75.8758 29.88 75.6758 30.664 75.2758 31.336C74.8758 32.008 74.3158 32.536 73.5958 32.92C72.8918 33.304 72.0678 33.496 71.1238 33.496V31.6C71.9238 31.6 72.5478 31.368 72.9958 30.904C73.4598 30.44 73.6918 29.8 73.6918 28.984H75.8758ZM67.2838 40V23.08H69.4678V40H67.2838ZM85.2176 35.872V27.184H87.4016V35.872H85.2176ZM77.9216 35.872V27.184H80.1056V35.872H77.9216ZM87.4016 27.208H85.2176C85.2176 26.376 84.9856 25.736 84.5216 25.288C84.0736 24.84 83.4496 24.616 82.6496 24.616V22.72C83.5936 22.72 84.4176 22.912 85.1216 23.296C85.8416 23.664 86.4016 24.192 86.8016 24.88C87.2016 25.552 87.4016 26.328 87.4016 27.208ZM77.9216 27.208C77.9216 26.328 78.1216 25.552 78.5216 24.88C78.9216 24.192 79.4816 23.664 80.2016 23.296C80.9216 22.912 81.7456 22.72 82.6736 22.72V24.616C81.8736 24.616 81.2416 24.84 80.7776 25.288C80.3296 25.736 80.1056 26.376 80.1056 27.208H77.9216ZM87.4016 35.848C87.4016 36.744 87.2016 37.528 86.8016 38.2C86.4016 38.872 85.8416 39.4 85.1216 39.784C84.4176 40.168 83.5936 40.36 82.6496 40.36V38.464C83.4496 38.464 84.0736 38.24 84.5216 37.792C84.9856 37.328 85.2176 36.68 85.2176 35.848H87.4016ZM77.9216 35.848H80.1056C80.1056 36.68 80.3296 37.328 80.7776 37.792C81.2416 38.24 81.8736 38.464 82.6736 38.464V40.36C81.7456 40.36 80.9216 40.168 80.2016 39.784C79.4816 39.4 78.9216 38.872 78.5216 38.2C78.1216 37.528 77.9216 36.744 77.9216 35.848ZM96.6148 40L93.5428 31.744H95.7747L98.8468 40H96.6148ZM91.5748 32.824V30.952H94.0228V32.824H91.5748ZM91.5748 24.976V23.08H94.0228V24.976H91.5748ZM96.5668 28.36V27.544H98.7508V28.36H96.5668ZM98.7508 27.568H96.5668C96.5668 26.736 96.3348 26.096 95.8708 25.648C95.4228 25.2 94.7988 24.976 93.9988 24.976V23.08C94.9428 23.08 95.7668 23.272 96.4708 23.656C97.1908 24.024 97.7508 24.552 98.1508 25.24C98.5508 25.912 98.7508 26.688 98.7508 27.568ZM98.7508 28.336C98.7508 29.216 98.5508 30 98.1508 30.688C97.7508 31.36 97.1908 31.888 96.4708 32.272C95.7668 32.64 94.9428 32.824 93.9988 32.824V30.952C94.7988 30.952 95.4228 30.72 95.8708 30.256C96.3348 29.792 96.5668 29.152 96.5668 28.336H98.7508ZM90.1588 40V23.08H92.3428V40H90.1588ZM99.5581 24.976V23.08H109.518V24.976H99.5581ZM103.446 40V23.08H105.63V40H103.446ZM112.347 36.616V34.744H118.491V36.616H112.347ZM116.211 23.08L112.083 40H109.923L114.051 23.08H116.211ZM116.259 23.08L120.387 40H118.251L114.099 23.08H116.259ZM123.896 40V38.104H130.064V40H123.896ZM122.432 40V23.08H124.616V40H122.432Z"
        fill="white" />
    <path d="M16 19H130" stroke="#FF4141" stroke-width="3" stroke-linecap="round" />
    <path d="M2 11H130" stroke="#FF4141" stroke-width="3" stroke-linecap="round" />
    <path d="M3 13H130" stroke="#FF4141" stroke-width="3" stroke-linecap="square" />
    <path
        d="M9 13.5C8.17157 13.5 7.5 14.1716 7.5 15C7.5 15.8284 8.17157 16.5 9 16.5V13.5ZM130 16.5H131.5V13.5H130V16.5ZM9 16.5L130 16.5V13.5L9 13.5V16.5Z"
        fill="#FF4141" />
    <path d="M13 18L129.996 17.025" stroke="#FF4141" stroke-width="3" stroke-linecap="square" />
    <path
        d="M97.043 9.88979C91.295 1.01579 87.931 -1.00221 84.799 2.88979C81.529 6.95379 88.828 9.88979 97.043 9.88979ZM97.043 9.88979L91.842 7.23979M97.043 9.88979C102.791 1.01579 106.155 -1.00221 109.287 2.88979C112.557 6.95379 105.258 9.88979 97.043 9.88979ZM97.043 9.88979L102.244 7.23979"
        stroke="#FF4141" stroke-linecap="round" stroke-linejoin="round" />
</svg>