<svg width="222" height="208" viewBox="0 0 222 208" fill="none" xmlns="http://www.w3.org/2000/svg">
<path d="M64.5657 115.688C65.0095 115.463 65.4534 115.463 65.8972 115.238C67.6724 112.99 70.1134 111.417 72.5543 110.293C73.22 109.619 73.6638 108.945 74.1076 108.046C75.4391 105.573 76.1048 102.876 76.1048 100.179C76.1048 94.56 73.22 89.1657 68.1162 86.2438C65.6753 84.8952 63.0124 84.221 60.3495 84.221C54.8019 84.221 49.4762 87.1429 46.5915 92.3124C45.26 94.7848 44.5943 97.4819 44.5943 100.179C44.5943 102.651 45.26 105.349 46.3695 107.596C47.0353 107.596 47.701 107.371 48.3667 107.371C48.5886 107.371 48.5886 107.371 48.8105 107.371C47.2572 103.326 47.9229 98.6057 50.5857 95.0095C51.2515 94.1105 52.1391 93.2114 53.0267 92.5371C53.4705 92.0876 53.9143 91.8629 54.3581 91.6381C54.58 91.4133 54.8019 91.4133 55.0238 91.1886L55.4676 90.9638H55.6895C56.1334 90.7391 56.5772 90.5143 57.2429 90.5143L57.6867 90.2895H58.1305C58.3524 90.2895 58.7962 90.0648 59.0181 90.0648C60.1276 89.84 61.2372 90.0648 62.3467 90.2895C64.5657 90.7391 66.5629 92.0876 67.8943 93.661C68.3381 94.1105 68.56 94.56 68.7819 95.0095C69.0038 95.2343 69.0038 95.459 69.2257 95.6838L69.4476 96.1333V96.3581L69.6695 97.0324C69.6695 97.2571 69.8915 97.7067 69.8915 97.9314C70.1134 98.381 70.1134 99.0552 70.1134 99.5048C70.1134 101.752 69.4476 103.775 68.1162 105.573C67.4505 106.472 66.5629 106.922 65.6753 107.596L65.0095 107.821H64.7876L64.5657 108.046C64.3438 108.046 64.1219 108.27 63.6781 108.27C63.4562 108.27 63.2343 108.27 63.0124 108.27C61.0153 108.495 59.0181 107.821 57.6867 106.472C57.021 105.798 56.5772 105.124 56.1334 104.225V104V103.775C56.1334 103.55 55.9115 103.326 55.9115 103.101C55.9115 102.651 55.6895 102.202 55.9115 101.752C55.9115 99.9543 57.021 98.381 58.1305 97.4819C58.3524 97.4819 58.3524 97.2571 58.5743 97.2571C58.7962 97.2571 59.0181 97.0324 59.0181 97.0324C59.24 97.0324 59.24 96.8076 59.4619 96.8076C59.6838 96.8076 59.9057 96.8076 60.1276 96.5829C60.7934 96.5829 61.681 96.5829 62.3467 96.8076C63.6781 97.2571 64.5657 98.381 65.0095 99.5048C65.4534 100.629 65.0095 101.752 64.5657 102.651C63.9 103.326 63.2343 103.775 62.3467 104C61.681 104 61.0153 103.775 60.5715 103.55C60.1276 103.326 59.9057 102.876 59.9057 102.651C59.6838 102.427 59.6838 102.202 59.6838 102.202C59.6838 102.202 59.9057 102.651 60.5715 103.326C61.0153 103.55 61.4591 103.775 62.1248 103.55C62.7905 103.326 63.4562 102.876 63.9 102.202C64.3438 101.528 64.5657 100.404 64.1219 99.7295C63.6781 98.8305 63.0124 97.9314 61.9029 97.7067C60.7934 97.4819 59.6838 97.7067 58.7962 98.381C57.9086 99.0552 57.2429 100.404 57.2429 101.752C57.2429 101.977 57.2429 102.427 57.2429 102.651C57.2429 102.876 57.2429 102.876 57.4648 103.101L57.6867 103.326V103.55C57.9086 104.225 58.3524 104.674 59.0181 105.124C60.1276 106.023 61.681 106.472 63.0124 106.248C63.2343 106.248 63.4562 106.248 63.4562 106.248L63.9 106.023L64.1219 105.798H64.3438L64.7876 105.573C65.4534 105.124 66.1191 104.674 66.5629 104C67.4505 102.651 68.1162 101.078 68.1162 99.5048C68.1162 99.0552 68.1162 98.6057 67.8943 98.381L67.6724 97.9314L67.4505 97.2571V97.0324L67.2286 96.8076C67.2286 96.5829 67.0067 96.3581 66.7848 96.3581C66.5629 95.9086 66.341 95.6838 65.8972 95.2343C64.7876 93.8857 63.2343 92.9867 61.4591 92.7619C60.5715 92.5371 59.6838 92.5371 58.7962 92.5371C58.5743 92.5371 58.3524 92.5371 58.1305 92.5371H57.9086H57.6867C57.2429 92.5371 56.7991 92.7619 56.3553 92.9867H56.1334V93.661C55.9115 93.661 55.6895 93.8857 55.4676 94.1105C55.0238 94.3352 54.8019 94.56 54.3581 95.0095C53.6924 95.459 53.0267 96.3581 52.5829 97.0324C50.3638 99.9543 49.92 104 51.2515 107.371C51.2515 107.596 51.4734 107.821 51.4734 108.046C53.4705 108.495 55.4676 109.17 57.2429 110.069C59.9057 111.642 61.9029 113.665 63.4562 115.912C63.9 115.912 64.3438 115.688 64.5657 115.688ZM81.4305 60.8457C81.6524 60.8457 81.6524 60.8457 81.8743 60.8457C82.3181 60.8457 82.54 61.0705 82.9838 61.2952C83.2057 61.52 83.4276 61.9695 83.6495 62.1943C83.6495 64.4419 83.8714 66.0152 84.5372 67.5886C84.981 69.1619 85.6467 70.7352 86.7562 72.3086C89.641 61.2952 93.8572 54.5524 98.5172 48.0343C102.29 42.64 106.284 37.6952 109.834 30.0533C109.834 29.8286 109.612 29.6038 109.612 29.6038H106.062C103.399 31.8514 99.1829 35.8971 93.6353 37.6952C92.3038 38.1448 90.9724 38.3695 89.4191 38.5943C88.9753 39.2686 88.5315 39.9429 88.0876 40.6171C83.8715 46.461 79.8772 50.7314 77.4362 55.4514C75.8829 58.5981 74.7734 61.52 74.7734 65.1162C75.661 63.9924 76.7705 63.0933 77.6581 62.419C78.7676 61.52 80.0991 61.0705 81.4305 60.8457ZM105.618 110.968C106.284 110.293 106.728 109.619 107.171 108.72C108.503 106.248 109.169 103.55 109.169 100.853C109.169 95.2343 106.284 89.84 101.18 86.9181C98.7391 85.5695 96.0762 84.8952 93.4134 84.8952C87.8657 84.8952 82.54 87.8171 79.6553 92.9867C78.9895 94.1105 78.5457 95.2343 78.3238 96.1333C78.5457 97.4819 78.7676 99.0552 78.7676 100.404C78.7676 101.977 78.5457 103.55 78.1019 105.124C78.5457 106.472 78.9895 107.821 79.8772 109.17C80.7648 109.17 81.4305 109.17 82.3181 109.394C82.0962 109.17 82.0962 108.945 81.8743 108.495C80.0991 104.45 80.7648 99.28 83.4276 95.6838C84.0934 94.7848 84.981 93.8857 85.8686 93.2114C86.3124 92.7619 86.7562 92.5371 87.2 92.3124C87.4219 92.0876 87.6438 92.0876 87.8657 91.8629L88.3095 91.6381H88.5314C88.9753 91.4133 89.4191 91.1886 90.0848 91.1886L90.5286 90.9638H90.9724C91.1943 90.9638 91.6381 90.739 91.86 90.739C92.9695 90.5143 94.0791 90.7391 95.1886 90.9638C97.4076 91.4133 99.4048 92.7619 100.736 94.3352C101.18 94.7848 101.402 95.2343 101.624 95.6838C101.846 95.9086 101.846 96.1333 102.068 96.3581L102.29 96.8076V97.0324L102.511 97.7067C102.511 97.9314 102.733 98.381 102.733 98.6057C102.955 99.0552 102.955 99.7295 102.955 100.179C102.955 102.427 102.29 104.45 100.958 106.248C100.292 107.147 99.4048 107.596 98.5172 108.27H98.2953H98.0734L97.8514 108.495C97.6295 108.495 97.4076 108.72 96.9638 108.72C96.7419 108.72 96.52 108.72 96.2981 108.72C94.301 108.945 92.3038 108.27 90.9724 106.922C90.3067 106.248 89.8629 105.573 89.4191 104.674V104.45V104.225C89.4191 104 89.1972 103.775 89.1972 103.55C89.1972 103.101 88.9753 102.651 89.1972 102.202C89.1972 100.404 90.3067 98.8305 91.4162 97.9314C91.6381 97.9314 91.6381 97.7067 91.86 97.7067C92.0819 97.7067 92.3038 97.4819 92.3038 97.4819C92.5257 97.4819 92.5257 97.2571 92.7476 97.2571C92.9695 97.2571 93.1914 97.2571 93.4134 97.0324C94.0791 97.0324 94.9667 97.0324 95.6324 97.2571C96.9638 97.7067 97.8515 98.8305 98.2953 99.9543C98.7391 101.078 98.2953 102.202 97.8514 103.101C97.1857 103.775 96.52 104.225 95.6324 104.45C94.9667 104.45 94.301 104.225 93.8572 104C93.4134 103.775 93.1915 103.326 93.1915 103.101C92.7476 102.876 92.5257 102.876 92.5257 102.876C92.5257 102.876 92.7476 103.326 93.4134 104C93.8572 104.225 94.301 104.45 94.9667 104.225C95.6324 104 96.2981 103.55 96.7419 102.876C97.1857 102.202 97.4076 101.078 96.9638 100.404C96.52 99.5048 95.8543 98.6057 94.7448 98.381C93.6353 98.1562 92.5257 98.381 91.6381 99.0552C90.7505 99.7295 90.0848 101.078 90.0848 102.427C90.0848 102.651 90.0848 103.101 90.0848 103.326C90.0848 103.55 90.0848 103.55 90.3067 103.775L90.5286 104V104.225C90.7505 104.899 91.1943 105.349 91.86 105.798C92.9695 106.697 94.5229 107.147 95.8543 106.922C96.0762 106.922 96.2981 106.922 96.2981 106.922L96.7419 106.697L96.9638 106.472H97.1857L97.6295 106.248C98.2953 105.798 98.961 105.349 99.4048 104.674C100.292 103.326 100.958 101.752 100.958 100.179C100.958 99.7295 100.958 99.28 100.736 99.0552L100.958 98.381L100.736 97.7067V97.4819L100.514 97.2571C100.514 97.0324 100.292 96.8076 100.07 96.8076C99.8486 96.3581 99.6267 96.1333 99.1829 95.6838C98.0734 94.3352 96.52 93.4362 94.7448 93.2114C93.8572 92.9867 92.9695 92.9867 92.0819 92.9867C91.86 92.9867 91.6381 92.9867 91.4162 92.9867H91.1943H90.9724C90.5286 92.9867 90.0848 93.2114 89.641 93.4362L89.4191 93.8857H89.1972C88.9753 93.8857 88.7534 94.1105 88.5314 94.3352C88.0876 94.56 87.8657 94.7848 87.4219 95.2343C86.7562 95.6838 86.0905 96.5829 85.6467 97.2571C83.4276 100.179 82.9838 104.225 84.3153 107.596C84.7591 108.495 85.2029 109.17 85.6467 110.069C86.7562 110.518 87.8657 110.968 88.9753 111.642C90.9724 112.766 92.7476 114.339 94.0791 116.137C95.1886 116.362 96.0762 116.587 97.1857 116.362C99.4048 113.665 102.29 111.867 105.618 110.968ZM175.518 91.6381C177.293 94.56 178.403 97.9314 178.403 101.528C178.403 104.225 177.737 106.922 176.628 109.394C177.515 109.619 178.403 109.844 179.291 110.069C179.956 108.495 180.622 106.697 181.288 104.674C181.51 104.45 181.51 104 181.731 103.55L181.51 103.326C181.51 103.326 181.51 103.326 181.731 103.101C181.953 102.427 182.397 101.977 182.619 101.303C182.841 100.853 183.063 100.404 183.285 99.9543C183.285 99.7295 183.063 99.5048 183.063 99.28V99.0552C183.063 99.0552 183.063 98.8305 183.285 98.6057C183.285 98.381 183.507 97.9314 183.507 97.4819C183.507 97.0324 183.729 96.3581 183.729 95.6838C183.729 95.0095 183.729 94.3352 183.729 93.661C183.729 92.3124 183.285 90.9638 183.063 89.84C182.841 88.7162 182.619 88.2667 182.619 88.2667C182.619 88.2667 183.063 88.941 183.507 89.84C183.951 90.7391 184.616 92.0876 184.838 93.661C185.06 94.3352 185.06 95.0095 185.282 95.9086C185.282 96.3581 185.282 96.5829 185.282 97.0324C187.723 93.4362 190.386 90.0648 192.383 87.3676C193.492 86.019 194.602 84.8952 195.268 83.9962C195.933 83.3219 196.377 82.8724 196.377 82.8724C196.377 82.8724 195.933 83.3219 195.268 84.221C194.602 85.12 193.714 86.2438 192.605 87.5924C190.386 90.5143 187.723 94.3352 185.282 98.6057C185.282 98.6057 185.282 98.8305 185.06 98.8305V99.0552C185.06 99.28 185.06 99.5048 185.06 99.5048C185.06 99.9543 184.616 100.179 184.394 100.404C184.172 100.853 183.951 101.303 183.729 101.752C183.729 101.752 183.729 101.752 183.729 101.977C184.394 101.752 185.06 101.303 185.726 101.078C186.17 100.853 186.613 100.853 187.057 100.629C187.501 100.404 187.945 100.404 188.389 100.179C190.164 99.7295 191.939 99.5048 193.271 99.5048C193.936 99.5048 194.602 99.5048 194.824 99.5048C194.38 99.5048 193.936 99.5048 193.271 99.7295C191.939 99.9543 190.164 100.404 188.61 101.078C188.167 101.303 187.723 101.528 187.501 101.528C187.057 101.752 186.835 101.977 186.391 102.202C185.726 102.651 185.06 103.101 184.616 103.326C184.172 103.775 183.729 104 183.285 104.225C183.063 104.45 182.841 104.674 182.841 104.674L182.619 104.45C182.619 104.674 182.619 104.674 182.397 104.899C181.731 106.922 181.066 108.72 180.622 110.293C183.285 111.417 185.504 113.44 187.501 115.688C191.939 115.238 196.155 112.99 198.596 108.72C200.15 106.248 201.037 103.55 201.703 100.629C202.369 97.7067 202.591 94.7848 202.591 92.0876C202.591 85.5695 201.259 79.501 200.815 77.2533C200.593 77.2533 200.371 77.2533 199.928 77.2533C198.818 77.4781 197.043 77.7029 195.046 78.1524C191.051 79.0514 186.17 81.0743 181.731 84.221C179.512 86.9181 177.293 88.941 175.518 91.6381ZM141.345 67.5886C141.567 67.3638 142.011 67.139 142.454 67.139C142.676 67.139 142.898 67.139 142.898 67.139C144.451 67.3638 145.783 68.2629 147.114 69.3867C148.224 70.2857 149.333 71.4095 150.221 72.5333C149.999 68.4876 148.668 65.1162 146.892 61.52C144.895 57.9238 142.454 54.3276 139.348 50.5067C136.685 46.9105 133.8 43.0895 130.915 38.3695C129.584 38.1448 128.474 37.92 127.365 37.4705C121.817 35.6724 117.601 31.6267 114.938 29.379H110.944C115.382 38.3695 120.042 45.1124 124.48 51.8552C129.584 59.4971 134.466 67.139 138.238 79.9505C139.126 78.1524 139.791 76.579 140.235 75.0057C140.679 73.4324 141.123 71.6343 141.123 69.3867C141.123 69.1619 141.345 68.7124 141.345 68.4876H141.123C141.345 68.2629 141.123 68.0381 141.345 67.5886ZM106.728 121.756L106.506 121.981L106.284 122.206C106.062 122.206 105.84 122.43 105.618 122.655C105.174 122.88 104.952 123.105 104.509 123.554C103.843 124.004 103.177 124.903 102.733 125.577C100.514 128.499 100.071 132.545 101.402 135.916C102.068 137.49 103.177 139.288 104.287 140.411C105.618 141.76 107.171 142.659 108.725 143.333C110.722 144.232 112.719 144.457 114.716 144.457C118.711 143.333 122.039 140.861 124.258 136.815C125.59 134.343 126.255 131.646 126.255 128.949C126.255 123.33 123.37 117.935 118.267 115.013C115.826 113.665 113.163 112.99 110.5 112.99C104.952 112.99 99.6267 115.912 96.7419 121.082C95.4105 123.554 94.7448 126.251 94.7448 128.949C94.7448 134.568 97.6295 139.962 102.733 142.884C103.621 143.333 104.509 143.783 105.396 144.008C102.733 142.21 100.514 139.737 99.1829 136.59C97.4076 132.545 98.0734 127.375 100.736 123.779C101.402 122.88 102.29 121.981 103.177 121.307C103.621 120.857 104.065 120.632 104.509 120.408C104.73 120.183 104.952 120.183 105.174 119.958L105.618 119.733H105.84C106.284 119.509 106.728 119.284 107.393 119.284L107.837 119.059H108.281C108.503 119.059 108.947 118.834 109.169 118.834C110.278 118.61 111.388 118.834 112.497 119.059C114.716 119.509 116.713 120.857 118.045 122.43C118.489 122.88 118.71 123.33 118.932 123.779C119.154 124.004 119.154 124.229 119.376 124.453L119.598 124.903V125.128L119.82 125.802C119.82 126.027 120.042 126.476 120.042 126.701C120.264 127.15 120.264 127.825 120.264 128.274C120.264 130.522 119.598 132.545 118.267 134.343C117.601 135.242 116.713 135.691 115.826 136.366L115.16 136.59H114.938H114.716C114.494 136.59 114.272 136.815 113.829 136.815C113.607 136.815 113.385 136.815 113.163 136.815C111.166 137.04 109.169 136.366 107.837 135.017C107.171 134.343 106.728 133.669 106.284 132.77V132.545V132.32C106.284 132.095 106.062 131.87 106.062 131.646C106.062 131.196 105.84 130.747 106.062 130.297C106.062 128.499 107.171 126.926 108.281 126.027C108.503 126.027 108.503 125.802 108.725 125.802C108.947 125.802 109.169 125.577 109.169 125.577C109.391 125.577 109.39 125.352 109.612 125.352C109.834 125.352 110.056 125.352 110.278 125.128C110.944 125.128 111.831 125.128 112.497 125.352C113.829 125.802 114.716 126.926 115.16 128.05C115.604 129.173 115.16 130.297 114.716 131.196C114.051 131.87 113.385 132.32 112.497 132.545C111.831 132.545 111.166 132.32 110.722 132.095C110.278 131.87 110.056 131.421 110.056 131.196C109.834 130.971 109.834 130.747 109.834 130.747C109.834 130.747 110.056 131.196 110.722 131.87C111.166 132.095 111.61 132.32 112.275 132.095C112.941 131.87 113.607 131.421 114.05 130.747C114.494 130.072 114.716 128.949 114.272 128.274C113.829 127.375 113.163 126.476 112.053 126.251C110.944 126.027 109.834 126.251 108.947 126.926C108.059 127.6 107.393 128.949 107.393 130.297C107.393 130.522 107.393 130.971 107.393 131.196C107.393 131.421 107.393 131.421 107.615 131.646L107.837 131.87V132.095C108.059 132.77 108.503 133.219 109.169 133.669C110.278 134.568 111.831 135.017 113.163 134.792C113.385 134.792 113.607 134.792 113.607 134.792L114.05 134.568L114.272 134.343H114.494L114.938 134.118C115.604 133.669 116.27 133.219 116.713 132.545C117.601 131.196 118.267 129.623 118.267 128.05C118.267 127.6 118.267 127.15 118.045 126.926L117.823 126.476L117.601 125.802V125.577V125.352C117.601 125.128 117.379 124.903 117.157 124.903C116.935 124.453 116.713 124.229 116.27 123.779C115.16 122.43 113.607 121.531 111.831 121.307C111.166 120.857 110.278 120.857 109.39 120.857C109.169 120.857 108.947 120.857 108.725 120.857H108.503H108.281C107.837 121.307 107.171 121.531 106.728 121.756ZM56.1334 112.091C53.6924 110.743 51.0295 110.069 48.3667 110.069C42.8191 110.069 37.4934 112.99 34.6086 118.16C33.2772 120.632 32.6115 123.33 32.6115 126.027C32.6115 131.646 35.4962 137.04 40.6 139.962C41.4876 140.411 42.3753 140.861 43.2629 141.086C40.6 139.288 38.381 136.815 37.0495 133.669C35.2743 129.623 35.94 124.453 38.6029 120.857C39.2686 119.958 40.1562 119.059 41.0438 118.385C41.4876 117.935 41.9315 117.71 42.3753 117.486C42.5972 117.261 42.8191 117.261 43.041 117.036L43.4848 116.811H43.7067C44.1505 116.587 44.5943 116.362 45.26 116.362L45.7038 116.137H46.1476C46.3695 116.137 46.8134 115.912 47.0353 115.912C48.1448 115.688 49.2543 115.912 50.3638 116.137C52.5829 116.587 54.58 117.935 55.9115 119.509C56.3553 119.958 56.5772 120.408 56.7991 120.857C57.021 121.082 57.021 121.307 57.2429 121.531L57.4648 121.981V122.206L57.6867 122.88C57.6867 123.105 57.9086 123.554 57.9086 123.779C58.1305 124.229 58.1305 124.903 58.1305 125.352C58.1305 127.6 57.4648 129.623 56.1334 131.421C55.4676 132.32 54.58 132.77 53.6924 133.444L53.0267 133.669H52.8048L52.5829 133.893C52.361 133.893 52.1391 134.118 51.6953 134.118C51.4734 134.118 51.2515 134.118 51.0295 134.118C49.0324 134.343 47.0353 133.669 45.7038 132.32C45.0381 131.646 44.5943 130.971 44.1505 130.072V129.848V129.623C44.1505 129.398 43.9286 129.173 43.9286 128.949C43.9286 128.499 43.7067 128.05 43.9286 127.6C43.9286 125.802 45.0381 124.229 46.1476 123.33C46.3695 123.33 46.3695 123.105 46.5915 123.105C46.8134 123.105 47.0353 122.88 47.0353 122.88C47.2572 122.88 47.2572 122.655 47.4791 122.655C47.701 122.655 47.9229 122.655 48.1448 122.43C48.8105 122.43 49.6981 122.43 50.3638 122.655C51.6953 123.105 52.5829 124.229 53.0267 125.352C53.4705 126.476 53.0267 127.6 52.5829 128.499C51.9172 129.173 51.2515 129.623 50.3638 129.848C49.6981 129.848 49.0324 129.623 48.5886 129.398C48.1448 129.173 47.9229 128.724 47.9229 128.499C47.701 128.274 47.701 128.05 47.701 128.05C47.701 128.05 47.9229 128.499 48.5886 129.173C49.0324 129.398 49.4762 129.623 50.1419 129.398C50.8076 129.173 51.4734 128.724 51.9172 128.05C52.361 127.375 52.5829 126.251 52.1391 125.577C51.6953 124.678 51.0295 123.779 49.92 123.554C48.8105 123.33 47.701 123.554 46.8134 124.229C45.9257 124.903 45.26 126.251 45.26 127.6C45.26 127.825 45.26 128.274 45.26 128.499C45.26 128.724 45.26 128.724 45.4819 128.949L45.7038 129.173V129.398C45.9257 130.072 46.3695 130.522 47.0353 130.971C48.1448 131.87 49.6981 132.32 51.0295 132.095C51.2515 132.095 51.4734 132.095 51.4734 132.095L51.9172 131.87L52.1391 131.646H52.361L52.8048 131.421C53.4705 130.971 54.1362 130.522 54.58 129.848C55.4676 128.499 56.1334 126.926 56.1334 125.352C56.1334 124.903 56.1334 124.453 55.9115 124.229L55.6895 123.779V123.105V122.88L55.4676 122.655C55.4676 122.43 55.2457 122.206 55.0238 122.206C54.8019 121.756 54.58 121.531 54.1362 121.082C53.0267 119.733 51.4734 118.834 49.6981 118.61C48.8105 118.385 47.9229 118.385 47.0353 118.385C46.8134 118.385 46.5915 118.385 46.3695 118.385H46.1476H45.9257C45.4819 118.385 45.0381 118.61 44.5943 118.834H44.3724L44.1505 119.059C43.9286 119.059 43.7067 119.284 43.4848 119.509C43.041 119.733 42.8191 119.958 42.3753 120.408C41.7095 120.857 41.0438 121.756 40.6 122.43C38.381 125.352 37.9372 129.398 39.2686 132.77C39.9343 134.343 41.0438 136.141 42.1534 137.265C43.4848 138.613 45.0381 139.512 46.5915 140.187C48.5886 141.086 50.5857 141.31 52.5829 141.31C56.5772 140.187 59.9057 137.714 62.1248 133.669C62.1248 133.444 62.3467 133.444 62.3467 133.219C61.681 131.196 61.4591 129.398 61.4591 127.15C61.4591 124.678 61.9029 121.981 63.0124 119.733C61.681 116.811 59.4619 114.114 56.1334 112.091ZM133.134 111.867C135.575 110.518 138.016 109.844 140.457 109.619C140.679 109.394 140.679 109.17 140.901 108.72C142.232 106.248 142.898 103.55 142.898 100.853C142.898 95.2343 140.013 89.84 134.91 86.9181C132.469 85.5695 129.806 84.8952 127.143 84.8952C121.595 84.8952 116.27 87.8171 113.385 92.9867C112.497 94.56 111.831 96.3581 111.61 98.1562C111.61 99.0552 111.831 99.7295 111.831 100.629C111.831 101.528 111.831 102.427 111.61 103.326C112.053 105.798 112.941 108.27 114.494 110.518C115.382 110.743 116.27 110.968 117.157 111.417C116.713 110.518 116.27 109.844 115.826 108.72C114.051 104.674 114.716 99.5048 117.379 95.9086C118.045 95.0095 118.932 94.1105 119.82 93.4362C120.264 92.9867 120.708 92.7619 121.151 92.5371C121.373 92.3124 121.595 92.3124 121.817 92.0876L122.261 91.8629H122.483C122.927 91.6381 123.37 91.4133 124.036 91.4133L124.48 91.1886H124.924C125.146 91.1886 125.59 90.9638 125.811 90.9638C126.921 90.7391 128.031 90.9638 129.14 91.1886C131.359 91.6381 133.356 92.9867 134.688 94.56C135.131 95.0095 135.353 95.4591 135.575 95.9086C135.797 96.1333 135.797 96.3581 136.019 96.5829L136.241 97.0324V97.2571L136.463 97.9314C136.463 98.1562 136.685 98.6057 136.685 98.8305C136.907 99.28 136.907 99.9543 136.907 100.404C136.907 102.651 136.241 104.674 134.91 106.472C134.244 107.371 133.356 107.821 132.469 108.495L131.803 108.72H131.581L131.359 108.945C131.137 108.945 130.915 109.17 130.471 109.17C130.25 109.17 130.028 109.17 129.806 109.17C127.809 109.394 125.811 108.72 124.48 107.371C123.814 106.697 123.37 106.023 122.927 105.124V104.899V104.674C122.927 104.45 122.705 104.225 122.705 104C122.705 103.55 122.483 103.101 122.705 102.651C122.705 100.853 123.814 99.28 124.924 98.381C125.146 98.381 125.146 98.1562 125.368 98.1562C125.59 98.1562 125.811 97.9314 125.811 97.9314C126.033 97.9314 126.033 97.7067 126.255 97.7067C126.477 97.7067 126.699 97.7067 126.921 97.4819C127.587 97.4819 128.474 97.4819 129.14 97.7067C130.471 98.1562 131.359 99.28 131.803 100.404C132.247 101.528 131.803 102.651 131.359 103.55C130.693 104.225 130.028 104.674 129.14 104.899C128.474 104.899 127.809 104.674 127.365 104.45C126.921 104.225 126.699 103.775 126.699 103.55C126.477 103.326 126.477 103.101 126.477 103.101C126.477 103.101 126.699 103.55 127.365 104.225C127.809 104.45 128.252 104.674 128.918 104.45C129.584 104.225 130.25 103.775 130.693 103.101C131.137 102.427 131.359 101.303 130.915 100.629C130.471 99.7295 129.806 98.8305 128.696 98.6057C127.587 98.381 126.477 98.6057 125.59 99.28C124.702 99.9543 124.036 101.303 124.036 102.651C124.036 102.876 124.036 103.326 124.036 103.55C124.036 103.775 124.036 103.775 124.258 104L124.48 104.225V104.45C124.702 105.124 125.146 105.573 125.811 106.023C126.921 106.922 128.474 107.371 129.806 107.147C130.028 107.147 130.25 107.147 130.25 107.147L130.693 106.922L130.915 106.697H131.137L131.581 106.472C132.247 106.023 132.912 105.573 133.356 104.899C134.244 103.55 134.91 101.977 134.91 100.404C134.91 99.9543 134.91 99.5048 134.688 99.28L134.466 98.8305L134.244 98.1562V97.9314L134.022 97.7067C134.022 97.4819 133.8 97.2571 133.578 97.2571C133.356 96.8076 133.134 96.5829 132.69 96.1333C131.581 94.7848 130.028 93.8857 128.252 93.661C127.365 93.4362 126.477 93.4362 125.59 93.4362C125.368 93.4362 125.146 93.4362 124.924 93.4362H124.702H124.48C124.036 93.4362 123.592 93.661 123.149 93.8857H122.927L122.705 94.1105C122.483 94.1105 122.261 94.3352 122.039 94.56C121.595 94.7848 121.373 95.0095 120.93 95.4591C120.264 95.9086 119.598 96.8076 119.154 97.4819C116.935 100.404 116.491 104.45 117.823 107.821C118.489 109.394 119.598 111.192 120.708 112.316C122.039 113.665 123.592 114.564 125.146 115.238C126.033 115.688 126.699 115.912 127.587 116.137C129.14 114.564 130.915 112.99 133.134 111.867ZM147.558 143.109C148.224 142.884 148.668 142.659 149.111 142.434C154.437 139.512 157.544 134.118 157.544 128.274C157.544 125.802 156.878 123.105 155.769 120.632C152.884 115.238 147.558 112.091 141.789 112.091C139.348 112.091 136.685 112.766 134.244 113.89C131.137 115.688 128.696 118.16 127.365 121.307C128.252 123.554 128.918 126.027 128.918 128.499C128.918 130.747 128.474 132.994 127.587 135.242C127.587 135.467 127.809 135.467 127.809 135.691C129.806 139.512 133.356 142.21 137.129 143.333C139.348 143.558 141.567 143.333 143.564 142.434C145.117 141.76 146.671 140.861 148.002 139.512C149.333 138.164 150.443 136.59 151.109 135.017C152.662 131.646 152.218 127.6 149.999 124.453C149.555 123.779 148.89 123.105 148.224 122.43C147.78 122.206 147.558 121.756 147.114 121.531C146.892 121.307 146.67 121.307 146.449 121.082L146.227 120.857H146.005C145.561 120.632 145.117 120.408 144.673 120.408H144.451H144.23C144.008 120.408 143.786 120.408 143.564 120.183C142.676 119.958 141.789 120.183 140.901 120.183C139.126 120.408 137.572 121.307 136.463 122.655C136.241 122.88 135.797 123.33 135.575 123.554C135.353 123.779 135.353 124.004 135.131 124.004L134.91 124.229V124.453L134.688 125.128L134.466 125.577C134.466 126.027 134.244 126.476 134.244 126.701C134.022 128.274 134.688 130.072 135.575 131.196C136.019 131.87 136.685 132.32 137.35 132.77L137.794 132.994H138.016L138.238 133.219L138.682 133.444C138.904 133.444 139.126 133.444 139.126 133.444C140.679 133.669 142.01 133.219 143.12 132.32C143.564 131.87 144.008 131.421 144.451 130.747V130.522L144.673 130.297C144.673 130.072 144.673 130.072 144.895 129.848C144.895 129.623 145.117 129.173 145.117 128.949C145.117 127.6 144.451 126.476 143.564 125.577C142.676 124.678 141.345 124.453 140.457 124.903C139.348 125.128 138.682 126.027 138.238 126.926C137.794 127.825 138.016 128.724 138.46 129.398C138.904 130.072 139.57 130.522 140.235 130.747C140.901 130.971 141.345 130.747 141.789 130.522C142.676 130.072 142.676 129.398 142.898 129.398C142.898 129.398 142.898 129.623 142.676 129.623C142.454 129.848 142.232 130.072 142.01 130.522C141.567 130.747 140.901 130.971 140.235 130.971C139.57 130.971 138.682 130.522 138.238 129.623C137.572 128.949 137.351 127.6 137.794 126.476C138.238 125.352 139.126 124.229 140.457 123.779C141.123 123.554 141.789 123.554 142.676 123.554C142.898 123.554 143.12 123.554 143.342 123.779C143.564 123.779 143.564 123.779 143.786 124.004C144.008 124.004 144.23 124.229 144.23 124.229C144.451 124.229 144.451 124.453 144.673 124.453C146.005 125.352 146.892 126.926 146.892 128.724C146.892 129.173 146.892 129.623 146.892 130.072C146.892 130.297 146.671 130.522 146.671 130.747V130.971V131.196C146.227 132.095 145.783 132.77 145.117 133.444C143.786 134.792 141.789 135.467 139.791 135.242C139.57 135.242 139.348 135.242 139.126 135.017C138.904 135.017 138.682 134.792 138.238 134.792L138.016 134.568H137.794L137.129 134.118C136.241 133.669 135.353 132.994 134.688 132.095C133.356 130.522 132.69 128.274 132.69 126.027C132.69 125.577 132.912 124.903 132.912 124.453C132.912 124.229 133.134 123.779 133.134 123.554L133.356 122.88V122.655L133.578 122.206C133.8 121.981 133.8 121.756 134.022 121.531C134.244 121.082 134.688 120.632 135.131 120.183C136.019 119.958 138.238 118.61 140.457 118.16C141.567 117.935 142.676 117.935 143.786 117.935C144.008 117.935 144.451 117.935 144.673 118.16H145.117L145.561 118.385C146.227 118.61 146.671 118.834 147.114 119.059H147.336L147.78 119.284C148.002 119.509 148.224 119.509 148.446 119.733C148.89 119.958 149.333 120.408 149.777 120.632C150.665 121.307 151.33 122.206 151.996 123.105C154.659 126.701 155.103 131.87 153.328 135.916C152.218 139.063 149.999 141.535 147.558 143.109ZM87.6438 113.665C85.2029 112.316 82.54 111.642 79.8772 111.642C74.3295 111.642 69.0038 114.564 66.1191 119.733C64.7876 122.206 64.1219 124.903 64.1219 127.6C64.1219 133.219 67.0067 138.613 72.1105 141.535C72.9981 141.985 73.8857 142.434 74.7734 142.659C72.1105 140.861 69.8914 138.389 68.56 135.242C66.7848 131.196 67.4505 126.027 70.1134 122.43C70.7791 121.531 71.6667 120.632 72.5543 119.958C72.9981 119.509 73.4419 119.284 73.8857 119.059C74.1076 118.834 74.3295 118.834 74.5514 118.61L74.9953 118.385H75.2172C75.661 118.16 76.1048 117.935 76.7705 117.935L77.2143 117.71H77.6581C77.88 117.71 78.3238 117.486 78.5457 117.486C79.6553 117.261 80.7648 117.486 81.8743 117.71C84.0934 118.16 86.0905 119.509 87.4219 121.082C87.8657 121.531 88.0876 121.981 88.3095 122.43C88.5315 122.655 88.5315 122.88 88.7534 123.105L88.9753 123.554V123.779L89.1972 124.453C89.1972 124.678 89.4191 125.128 89.4191 125.352C89.641 125.802 89.641 126.476 89.641 126.926C89.641 129.173 88.9753 131.196 87.6438 132.994C86.9781 133.893 86.0905 134.343 85.2029 135.017L84.5372 135.242H84.3153L84.0934 135.467C83.8714 135.467 83.6495 135.691 83.2057 135.691C82.9838 135.691 82.7619 135.691 82.54 135.691C80.5429 135.916 78.5457 135.242 77.2143 133.893C76.5486 133.219 76.1048 132.545 75.661 131.646V131.421V131.196C75.661 130.971 75.4391 130.747 75.4391 130.522C75.4391 130.072 75.2172 129.623 75.4391 129.173C75.4391 127.375 76.5486 125.802 77.6581 124.903C77.88 124.903 77.88 124.678 78.1019 124.678C78.3238 124.678 78.5457 124.453 78.5457 124.453C78.7676 124.453 78.7676 124.229 78.9895 124.229C79.2114 124.229 79.4334 124.229 79.6553 124.004C80.321 124.004 81.2086 124.004 81.8743 124.229C83.2057 124.678 84.0934 125.802 84.5372 126.926C84.981 128.05 84.5372 129.173 84.0934 130.072C83.4276 130.747 82.7619 131.196 81.8743 131.421C81.2086 131.421 80.5429 131.196 80.0991 130.971C79.6553 130.747 79.4334 130.297 79.4334 130.072C79.2115 129.848 79.2115 129.623 79.2115 129.623C79.2115 129.623 79.4334 130.072 80.0991 130.747C80.5429 130.971 80.9867 131.196 81.6524 130.971C82.3181 130.747 82.9838 130.297 83.4276 129.623C83.8714 128.949 84.0934 127.825 83.6495 127.15C83.2057 126.251 82.54 125.352 81.4305 125.128C80.321 124.903 79.2115 125.128 78.3238 125.802C77.4362 126.476 76.7705 127.825 76.7705 129.173C76.7705 129.398 76.7705 129.848 76.7705 130.072C76.7705 130.297 76.7705 130.297 76.9924 130.522L77.2143 130.747V130.971C77.4362 131.646 77.88 132.095 78.5457 132.545C79.6553 133.444 81.2086 133.893 82.54 133.669C82.7619 133.669 82.9838 133.669 82.9838 133.669L83.4276 133.444L83.6495 133.219H83.8715L84.3153 132.994C84.981 132.545 85.6467 132.095 86.0905 131.421C86.9781 130.072 87.6438 128.499 87.6438 126.926C87.6438 126.476 87.6438 126.027 87.4219 125.802L87.2 125.352L86.9781 124.678V124.453L86.7562 124.229C86.7562 124.004 86.5343 123.779 86.3124 123.779C86.0905 123.33 85.8686 123.105 85.4248 122.655C84.3153 121.307 82.7619 120.408 80.9867 120.183C80.0991 119.958 79.2115 119.958 78.3238 119.958C78.1019 119.958 77.88 119.958 77.6581 119.958H77.4362H77.2143C76.7705 119.958 76.3267 120.183 75.8829 120.408H75.661L75.4391 120.857C75.2172 120.857 74.9953 121.082 74.7734 121.307C74.3295 121.531 74.1076 121.756 73.6638 122.206C72.9981 122.655 72.3324 123.554 71.8886 124.229C69.6695 127.15 69.2257 131.196 70.5572 134.568C71.2229 136.141 72.3324 137.939 73.4419 139.063C74.7734 140.411 76.3267 141.31 77.88 141.985C79.8772 142.884 81.8743 143.109 83.8715 143.109C87.8657 141.985 91.1943 139.512 93.4134 135.691C92.5257 133.444 92.0819 131.196 92.0819 128.949C92.0819 126.251 92.7476 123.554 93.8572 120.857C92.7476 117.935 90.5286 115.238 87.6438 113.665ZM192.827 119.733C192.827 119.733 193.049 119.509 193.271 119.284C193.492 119.059 193.714 118.61 194.158 118.16C194.38 117.71 194.602 117.261 195.046 116.587C193.27 117.486 191.273 118.16 189.498 118.61V118.834C190.164 119.958 190.608 121.082 190.83 122.206C191.051 121.981 191.273 121.981 191.273 121.756C191.717 121.307 192.161 121.082 192.827 120.632C192.605 120.408 192.605 120.183 192.827 119.733ZM178.847 142.434C179.512 142.21 179.956 141.985 180.4 141.76C185.726 138.838 188.832 133.444 188.832 127.6C188.832 125.128 188.167 122.43 187.057 119.958C184.172 114.564 178.847 111.417 173.077 111.417C170.636 111.417 167.973 112.091 165.532 113.215C162.204 115.013 159.763 117.71 158.431 120.857C159.319 123.105 159.763 125.577 159.763 128.05C159.763 130.297 159.319 132.32 158.653 134.343C158.653 134.568 158.875 134.792 158.875 134.792C160.872 138.613 164.423 141.31 168.195 142.434C170.414 142.659 172.633 142.434 174.631 141.535C176.184 140.861 177.737 139.962 179.069 138.613C180.4 137.265 181.51 135.691 182.175 134.118C183.729 130.747 183.285 126.701 181.066 123.554C180.622 122.88 179.956 122.206 179.291 121.531C178.847 121.307 178.625 120.857 178.181 120.632C177.959 120.408 177.737 120.408 177.515 120.183L177.293 119.958H177.071C176.628 119.733 176.184 119.509 175.74 119.509H175.518H175.296C175.074 119.509 174.852 119.509 174.631 119.284C173.743 119.059 172.855 119.284 171.968 119.284C170.192 119.509 168.639 120.408 167.53 121.756C167.308 121.981 166.864 122.43 166.642 122.655C166.42 122.88 166.42 123.105 166.198 123.105L165.976 123.33V123.554L165.754 124.229L165.532 124.678C165.532 125.128 165.31 125.577 165.31 125.802C165.089 127.375 165.754 129.173 166.642 130.297C167.086 130.971 167.751 131.421 168.417 131.87L168.861 132.095H169.083L169.305 132.32L169.749 132.545C169.97 132.545 170.192 132.545 170.192 132.545C171.746 132.77 173.077 132.32 174.187 131.421C174.63 130.971 175.074 130.522 175.518 129.848V129.623L175.74 129.398C175.74 129.173 175.74 129.173 175.962 128.949C175.962 128.724 176.184 128.274 176.184 128.05C176.184 126.701 175.518 125.577 174.631 124.678C173.743 123.779 172.411 123.554 171.524 124.004C170.414 124.229 169.749 125.128 169.305 126.027C168.861 126.926 169.083 127.825 169.527 128.499C169.971 129.173 170.636 129.623 171.302 129.848C171.968 130.072 172.411 129.848 172.855 129.623C173.743 129.173 173.743 128.499 173.965 128.499C173.965 128.499 173.965 128.724 173.743 128.724C173.521 128.949 173.299 129.173 173.077 129.623C172.633 129.848 171.968 130.072 171.302 130.072C170.636 130.072 169.749 129.623 169.305 128.724C168.639 128.05 168.417 126.701 168.861 125.577C169.305 124.453 170.192 123.33 171.524 122.88C172.19 122.655 172.855 122.655 173.743 122.655C173.965 122.655 174.187 122.655 174.409 122.88C174.631 122.88 174.631 122.88 174.852 123.105C175.074 123.105 175.296 123.33 175.296 123.33C175.518 123.33 175.518 123.554 175.74 123.554C177.071 124.453 177.959 126.027 177.959 127.825C177.959 128.274 177.959 128.724 177.959 129.173C177.959 129.398 177.737 129.623 177.737 129.848V130.072V130.297C177.293 131.196 176.85 131.87 176.184 132.545C174.852 133.893 172.855 134.568 170.858 134.343C170.636 134.343 170.414 134.343 170.192 134.118C169.971 134.118 169.749 133.893 169.305 133.893L169.083 133.669H168.861L168.195 133.219C167.308 132.77 166.42 132.095 165.754 131.196C164.423 129.623 163.757 127.375 163.757 125.128C163.757 124.678 163.979 124.004 163.979 123.554C163.979 123.33 164.201 122.88 164.201 122.655L164.423 121.981V121.756L164.645 121.307C164.867 121.082 164.867 120.857 165.089 120.632C165.311 120.183 165.754 119.733 166.198 119.284C167.751 117.71 169.749 116.362 171.968 116.137C173.077 115.912 174.187 115.912 175.296 115.912C175.518 115.912 175.962 115.912 176.184 116.137H176.628L177.071 116.362C177.737 116.587 178.181 116.811 178.625 117.036H178.847L179.291 117.261C179.512 117.486 179.734 117.486 179.956 117.71C180.4 117.935 180.844 118.385 181.288 118.61C182.175 119.284 182.841 120.183 183.507 121.082C186.17 124.678 186.613 129.848 184.838 133.893C183.507 138.389 181.51 140.861 178.847 142.434ZM34.8305 138.389C31.9457 135.017 30.1705 130.522 30.1705 126.027C30.1705 125.577 30.1705 125.128 30.1705 124.903C29.9486 124.903 29.9486 124.903 29.7267 124.903C29.5048 124.903 29.061 124.678 28.6172 124.678C28.1734 124.678 27.7295 124.453 27.2857 124.453C26.8419 124.453 26.3981 124.229 25.9543 124.229C25.5105 124.229 25.0667 124.229 24.401 124.004C23.9572 124.004 23.2915 124.004 22.8476 124.004C20.8505 124.004 18.6315 124.453 17.0781 124.903C16.4124 125.128 15.7467 125.352 15.3029 125.352C15.081 125.352 14.8591 125.352 14.8591 125.352C14.8591 125.352 15.081 125.352 15.5248 125.128C15.9686 124.903 16.6343 124.678 17.3 124.453C18.8534 123.779 20.8505 123.33 23.0696 122.88C23.5134 122.88 24.1791 122.655 24.6229 122.655C25.0667 122.655 25.7324 122.655 26.1762 122.655C26.62 122.655 27.2857 122.655 27.7295 122.655C28.1734 122.655 28.6172 122.655 29.061 122.88C29.061 122.88 29.061 122.88 29.2829 122.88C29.061 122.655 29.061 122.655 28.8391 122.43C28.3953 121.981 27.9515 121.531 27.2857 121.082C26.8419 121.082 26.62 121.082 26.3981 120.632V120.408C26.3981 120.408 26.3981 120.183 26.1762 119.958C25.9543 119.733 25.9543 119.733 25.7324 119.509C21.2943 115.912 16.4124 112.99 12.8619 110.743C11.0867 109.619 9.53336 108.72 8.42384 108.27C9.53336 108.72 11.0867 109.619 13.0838 110.518C16.6343 112.316 21.0724 115.013 25.5105 117.935C25.2886 117.486 25.0667 116.811 24.8448 116.362C24.6229 115.912 24.6229 115.238 24.401 114.789C22.8476 113.665 21.5162 112.091 20.4067 110.293C18.8534 107.596 17.7438 104.45 17.0781 101.528V101.303C16.1905 101.303 15.3029 101.303 14.4153 101.303C7.75812 101.303 1.9886 102.651 -0.00854492 103.326C-0.00854492 103.775 0.21336 104 0.21336 104.674C0.435264 106.248 0.879074 108.27 1.54479 110.743C2.87622 115.688 4.87336 121.981 8.20193 127.6C10.421 131.421 13.0838 134.792 16.6343 137.265C19.741 139.512 23.2915 140.636 26.8419 140.636C29.061 140.636 32.1676 139.962 34.8305 138.389ZM29.5048 121.756C29.7267 121.981 30.1705 122.206 30.3924 122.655C30.6143 121.307 31.0581 119.958 31.7238 118.834C29.5048 118.385 27.5076 117.71 25.7324 116.587C25.9543 117.261 26.3981 117.935 26.62 118.385C26.8419 118.834 27.2857 119.284 27.5076 119.509C27.7296 119.733 27.7295 119.958 27.7295 119.958C27.9515 120.183 27.9515 120.408 27.9515 120.632C28.6172 120.857 29.061 121.307 29.5048 121.756ZM22.1819 109.394C24.6229 113.44 28.6172 115.688 32.8334 116.362C34.6086 113.665 36.8276 111.417 39.4905 110.069C39.0467 108.72 38.6029 107.147 37.9372 105.573C37.9372 105.349 37.9372 105.349 37.7153 105.124C37.7153 105.124 37.4934 104.899 37.2715 104.674C37.0495 104.45 36.6057 104 35.94 103.775C35.4962 103.326 34.8305 102.876 34.1648 102.651C33.721 102.427 33.4991 102.202 33.0553 101.977C32.6115 101.752 32.1676 101.528 31.9457 101.528C30.3924 100.853 28.6172 100.404 27.2857 100.179C26.62 100.179 26.1762 99.9543 25.7324 99.9543C26.1762 99.9543 26.62 99.9543 27.2857 99.9543C28.6172 99.9543 30.3924 100.179 32.1676 100.629C32.6115 100.853 33.0553 100.853 33.4991 101.078C33.9429 101.303 34.3867 101.303 34.8305 101.528C35.4962 101.752 36.1619 102.202 36.8276 102.427C36.8276 102.427 36.8276 102.427 36.8276 102.202C36.6057 101.752 36.3838 101.303 36.1619 100.853C35.7181 100.853 35.4962 100.629 35.4962 100.179V99.9543C35.4962 99.9543 35.4962 99.7295 35.4962 99.5048V99.28C35.4962 99.28 35.4962 99.0552 35.2743 99.0552C33.0553 94.7848 30.1705 90.9638 27.9515 88.0419C26.8419 86.6933 25.9543 85.3448 25.2886 84.6705C24.6229 83.7714 24.1791 83.3219 24.1791 83.3219C24.1791 83.3219 24.6229 83.7714 25.2886 84.4457C25.9543 85.3448 27.0638 86.4686 28.1734 87.8171C30.1705 90.2895 32.8334 93.661 35.2743 97.4819C35.2743 97.0324 35.2743 96.8076 35.2743 96.3581C35.2743 95.6838 35.4962 95.0095 35.7181 94.1105C35.94 92.7619 36.6057 91.4133 37.0495 90.2895C37.4934 89.3905 37.9372 88.7162 37.9372 88.7162C37.9372 88.7162 37.7153 89.3905 37.4934 90.2895C37.2715 91.4133 36.8276 92.7619 36.8276 94.1105C36.8276 94.7848 36.8276 95.459 36.8276 96.1333C36.8276 96.8076 37.0495 97.2571 37.0495 97.9314C37.0495 98.381 37.2715 98.8305 37.2715 99.0552C37.2715 99.28 37.4934 99.5048 37.4934 99.5048C37.4934 99.7295 37.4934 99.9543 37.4934 100.179C37.7153 100.629 37.9372 101.078 38.1591 101.528C38.381 102.202 38.8248 102.651 39.0467 103.326C39.2686 103.55 39.2686 103.55 39.2686 103.55L39.0467 103.775C39.2686 104.225 39.2686 104.45 39.4905 104.899C40.1562 106.472 40.8219 108.046 41.2657 109.394C42.1534 108.945 43.2629 108.72 44.1505 108.27C43.041 105.798 42.3753 103.101 42.3753 100.404C42.3753 97.2571 43.041 94.1105 44.8162 91.1886C44.8162 90.9638 45.0381 90.9638 45.0381 90.739C43.4848 88.4914 41.4876 86.6933 39.4905 85.12C36.6057 82.8724 33.4991 81.2991 30.3924 80.1752C25.9543 78.6019 21.96 77.9276 20.1848 77.7029V77.9276C19.9629 78.8267 19.741 79.9505 19.5191 81.2991C19.0753 84.221 18.4096 88.2667 18.4096 92.5371C18.4096 95.4591 18.6315 98.381 19.2972 101.078C19.741 104.225 20.8505 106.922 22.1819 109.394ZM37.2715 170.979H37.7153L41.2657 169.181L37.7153 171.204C44.5943 185.589 54.3581 197.95 65.8972 206.941C66.341 207.166 66.7848 207.615 67.2286 207.615H153.55C153.993 207.615 154.659 207.39 154.881 207.166C165.089 199.299 173.965 188.735 180.622 176.373L180.844 176.149C184.394 169.406 187.501 162.888 189.72 153.897H30.6143C32.3895 160.19 34.6086 165.36 37.2715 170.979ZM171.524 186.263C171.302 187.611 169.749 188.51 168.417 188.061C164.867 187.162 161.316 186.038 157.988 184.465C158.875 183.116 159.763 181.543 160.651 180.194C163.535 181.318 166.42 182.442 169.527 183.116C171.08 183.566 171.968 184.914 171.524 186.263ZM166.864 156.819C168.195 157.269 168.861 158.617 168.417 159.966C162.204 178.621 151.996 193.455 138.016 204.019C136.907 204.918 135.353 204.693 134.466 203.57C133.578 202.446 133.8 200.872 134.91 199.973C148.002 189.859 157.544 176.149 163.535 158.168C163.979 157.044 165.532 156.37 166.864 156.819ZM122.483 186.937C122.705 186.488 122.927 186.263 123.149 185.813C123.814 184.69 124.48 183.79 125.146 182.667C130.693 186.038 136.685 188.735 142.676 190.533C141.345 191.882 140.013 193.23 138.682 194.579C133.134 192.781 127.587 190.084 122.483 186.937ZM149.999 174.126C151.109 175.025 152.44 175.699 153.55 176.373C152.662 177.947 151.774 179.295 150.887 180.644C149.555 179.97 148.446 179.07 147.336 178.171C142.232 174.575 137.572 170.53 133.8 165.81C134.466 164.011 135.131 162.213 135.797 160.19C139.57 165.585 144.451 170.305 149.999 174.126ZM132.69 156.819C134.022 157.269 134.688 158.617 134.244 159.966C128.03 178.621 117.823 193.455 103.843 204.019C102.733 204.918 101.18 204.693 100.292 203.57C99.4048 202.446 99.6267 200.872 100.736 199.973C113.829 189.859 123.37 176.149 129.362 158.168C130.028 157.044 131.359 156.37 132.69 156.819ZM87.4219 187.611C87.8657 186.937 88.3095 186.488 88.7534 185.813C89.4191 184.914 89.8629 184.24 90.3067 183.341C96.0762 186.712 102.068 189.185 108.281 190.983C106.95 192.331 105.618 193.68 104.065 195.029C98.2953 193.23 92.7476 190.758 87.4219 187.611ZM118.489 178.171C117.823 179.07 117.157 180.194 116.491 181.093C116.27 181.543 115.826 181.992 115.604 182.442C109.39 177.722 103.621 172.552 98.961 166.709C99.6267 164.91 100.292 163.112 100.958 161.09C105.84 167.383 111.831 173.227 118.489 178.171ZM98.2953 156.819C99.6267 157.269 100.292 158.617 99.8486 159.966C93.4134 178.621 83.4276 193.455 69.4476 204.019C68.3381 204.918 66.7848 204.693 65.8972 203.57C65.0095 202.446 65.2314 200.872 66.341 199.973C79.4334 189.859 88.9753 176.149 94.9667 158.168C95.4105 157.044 96.9638 156.37 98.2953 156.819ZM83.4276 179.07C82.9838 179.745 82.54 180.644 81.8743 181.318C81.4305 181.992 80.9867 182.667 80.5429 183.341C74.3295 178.846 68.56 173.676 63.9 168.057C64.7876 166.259 65.4534 164.461 66.1191 162.663C70.7791 168.507 76.7705 174.126 83.4276 179.07ZM47.0353 180.194C50.1419 177.947 52.5829 174.575 54.8019 170.979C57.021 167.158 58.7962 162.888 60.3495 158.392C60.7934 157.044 62.1248 156.37 63.4562 156.819C64.7876 157.269 65.4534 158.617 65.0095 159.966C63.4562 164.686 61.4591 169.181 59.0181 173.451C56.5772 177.722 53.6924 181.318 49.92 184.24C48.8105 185.139 47.2572 184.914 46.3695 183.79C45.7038 182.442 45.9257 180.869 47.0353 180.194ZM54.58 51.6305C59.24 45.7867 64.5657 40.8419 70.3353 36.5714C69.0038 35.6724 67.8943 34.7733 66.7848 33.6495C56.3553 41.2914 47.4791 51.8552 40.8219 63.9924C38.1591 68.7124 35.94 73.8819 33.9429 79.2762C35.2743 79.9505 36.6057 80.6248 37.9372 81.2991C41.9315 70.061 47.701 59.9467 54.58 51.6305ZM194.824 143.333C191.717 143.333 188.611 142.659 185.726 141.086C184.616 142.21 183.285 143.109 181.731 144.008C179.069 145.581 175.962 146.03 173.077 146.03C168.195 146.03 163.535 144.682 159.985 140.187H155.325C153.993 142.434 152.218 143.558 150.221 144.457C147.558 146.03 144.451 146.48 141.567 146.48C136.463 146.48 131.359 144.457 127.809 139.962H124.48C120.93 144.457 115.826 146.93 110.5 146.93C107.393 146.93 104.287 146.03 101.402 144.457C99.4048 143.333 97.6295 142.21 96.2981 139.962H92.7476C89.1972 144.457 84.5372 145.806 79.6553 145.806C76.5486 145.806 73.4419 144.907 70.5572 143.333C69.0038 142.434 67.6724 142.21 66.5629 139.962H59.6838C56.3553 144.457 52.361 144.232 48.1448 144.232C45.0381 144.232 41.9315 143.333 39.0467 141.76C38.1591 141.31 37.2715 139.962 36.6057 139.962H35.7181C32.6115 142.21 29.2829 142.884 25.9543 142.884C25.2886 142.884 24.6229 142.884 23.9572 142.884C23.7353 143.333 23.7353 144.232 23.7353 144.682V146.705C23.7353 147.829 24.1791 148.952 24.8448 149.627C25.5105 150.301 26.62 150.975 27.7295 150.975H192.827C193.936 150.975 194.824 150.526 195.711 149.627C196.377 148.952 196.821 147.829 196.821 146.705V144.682C196.821 144.008 196.821 143.558 196.599 142.884C196.155 143.109 195.49 143.333 194.824 143.333ZM121.595 15.4438V23.0857C121.595 25.7829 119.82 28.2552 117.379 28.9295C119.82 31.6267 123.37 34.099 128.252 35.6724C131.581 36.7962 135.131 37.2457 138.46 37.2457C145.117 37.2457 150.887 34.9981 153.328 31.1771C154.881 28.48 154.659 25.3333 152.662 22.4114C151.109 20.1638 151.109 17.6914 152.662 15.6686C154.659 12.7467 155.103 9.6 153.55 6.90286C151.331 3.08191 145.561 0.83429 138.682 0.83429C135.353 0.83429 131.803 1.28381 128.474 2.40762C123.592 3.98096 119.598 6.6781 117.157 9.6C119.82 10.2743 121.595 12.5219 121.595 15.4438ZM124.036 10.4991C124.48 10.4991 124.924 10.7238 125.368 10.7238C125.811 10.7238 126.477 10.9486 127.143 10.9486C127.809 10.9486 128.474 11.1733 129.14 11.1733C129.806 11.1733 130.693 11.1733 131.581 11.3981C132.469 11.3981 133.134 11.3981 134.022 11.3981C134.91 11.3981 135.797 11.3981 136.685 11.3981C137.572 11.3981 138.46 11.1733 139.126 11.1733C140.013 10.9486 140.679 10.9486 141.567 10.7238C142.01 10.7238 142.232 10.4991 142.676 10.2743C143.12 10.2743 143.342 10.0495 143.786 9.82477C144.23 9.6 144.451 9.6 144.895 9.37524C145.117 9.15048 145.561 9.15048 145.783 8.92572C146.005 8.70096 146.449 8.70096 146.671 8.47619C146.892 8.25143 147.114 8.25143 147.336 8.02667C147.558 7.80191 147.78 7.80191 148.002 7.57715C148.224 7.35239 148.446 7.35238 148.446 7.12762C149.111 6.6781 149.555 6.45334 149.555 6.45334C149.555 6.45334 149.333 7.12762 148.89 7.57715C148.668 7.80191 148.668 7.80191 148.446 8.02667C148.224 8.25143 148.002 8.47619 147.78 8.47619C147.558 8.70096 147.336 8.92572 147.114 9.15048C146.892 9.37524 146.671 9.6 146.227 9.82477C146.005 10.0495 145.561 10.2743 145.339 10.4991C145.117 10.7238 144.673 10.9486 144.23 10.9486C143.786 11.1733 143.564 11.3981 143.12 11.3981C142.676 11.6229 142.232 11.6229 142.01 11.8476C141.123 12.0724 140.235 12.2971 139.348 12.5219C138.46 12.7467 137.572 12.7467 136.685 12.9714C135.797 12.9714 134.91 12.9714 134.022 12.9714C133.134 12.9714 132.247 12.7467 131.359 12.7467C130.471 12.5219 129.806 12.5219 128.918 12.2971C128.252 12.0724 127.365 11.8476 126.699 11.6229C126.477 11.6229 126.033 11.3981 125.811 11.3981C125.59 11.1733 125.146 11.1733 124.924 11.1733C124.48 10.9486 124.036 10.7238 123.592 10.4991C122.927 10.0495 122.483 10.0495 122.483 10.0495C122.483 10.0495 123.37 10.2743 124.036 10.4991ZM68.56 22.6362C66.5629 25.5581 66.1191 28.7048 67.8943 31.4019C70.1134 35.2229 75.8829 37.4705 82.7619 37.4705C86.0905 37.4705 89.641 37.021 92.9695 35.8971C97.6295 34.3238 101.402 31.8514 103.843 29.1543C101.402 28.2552 99.6267 26.0076 99.6267 23.3105V15.6686C99.6267 12.7467 101.402 10.2743 104.065 9.6C101.846 6.6781 97.8514 4.20572 92.9695 2.40762C89.641 1.28381 86.0905 0.83429 82.7619 0.83429C76.1048 0.83429 70.3353 3.08191 67.8943 6.90286C66.341 9.6 66.5629 12.7467 68.56 15.6686C69.8914 17.9162 69.8914 20.3886 68.56 22.6362ZM72.5543 6.6781C72.7762 6.90286 72.7762 6.90286 72.9981 7.12762C73.22 7.35238 73.4419 7.35239 73.6638 7.57715C73.8857 7.80191 74.1076 7.80191 74.3295 8.02667C74.5515 8.25143 74.7734 8.25143 75.2172 8.47619C75.4391 8.70096 75.8829 8.70096 76.1048 8.92572C76.3267 9.15048 76.7705 9.15048 76.9924 9.37524C77.2143 9.6 77.6581 9.6 78.1019 9.82477C78.5457 10.0495 78.7676 10.0495 79.2115 10.2743C79.8772 10.4991 80.7648 10.7238 81.6524 10.9486C82.54 11.1733 83.4276 11.1733 84.0934 11.3981C84.981 11.3981 85.8686 11.6229 86.7562 11.6229C87.6438 11.6229 88.5315 11.6229 89.1972 11.6229C90.0848 11.6229 90.7505 11.6229 91.6381 11.6229C92.3038 11.6229 93.1915 11.6229 93.8572 11.3981C94.5229 11.3981 95.1886 11.3981 95.6324 11.1733C96.0762 11.1733 96.7419 11.1733 96.9638 10.9486C97.8515 10.9486 98.2953 10.7238 98.2953 10.7238C98.2953 10.7238 97.8515 10.9486 97.1857 11.1733C96.7419 11.3981 96.2981 11.3981 95.8543 11.6229C95.6324 11.6229 95.4105 11.8476 94.9667 11.8476C94.7448 11.8476 94.301 12.0724 94.0791 12.0724C93.4134 12.2971 92.7476 12.2971 91.86 12.5219C91.1943 12.7467 90.3067 12.7467 89.4191 12.7467C88.5315 12.7467 87.6438 12.9714 86.7562 12.7467C85.8686 12.7467 84.981 12.5219 84.0934 12.5219C83.2057 12.2971 82.3181 12.2971 81.4305 12.0724C80.5429 11.8476 79.6553 11.6229 78.9895 11.1733C78.5457 10.9486 78.1019 10.7238 77.88 10.7238C77.4362 10.4991 77.2143 10.2743 76.7705 10.0495C76.3267 9.82476 76.1048 9.6 75.8829 9.37524C75.661 9.15048 75.2172 8.92572 74.9953 8.70096C74.7734 8.47619 74.5515 8.25143 74.3295 8.02667C74.1076 7.80191 73.8857 7.57715 73.6638 7.35238C73.4419 7.12762 73.22 6.90286 73.22 6.90286C72.9981 6.6781 72.9981 6.45334 72.7762 6.45334C72.3324 5.77905 72.1105 5.55429 72.1105 5.55429C72.1105 5.55429 71.8886 6.22857 72.5543 6.6781ZM158.653 116.137C160.207 114.114 161.982 112.541 164.423 111.192C167.086 109.619 170.192 108.945 173.077 108.945C173.299 108.945 173.743 108.945 173.965 108.945C175.296 106.472 175.74 104 175.74 101.528C175.74 95.9086 172.855 90.5143 167.751 87.5924C165.311 86.2438 162.648 85.5695 159.985 85.5695C154.437 85.5695 149.111 88.4914 146.227 93.661C145.561 94.7848 145.117 95.9086 144.895 96.8076C145.117 98.1562 145.339 99.7295 145.339 101.078C145.339 102.651 145.117 104.225 144.673 105.798C145.117 107.596 145.783 109.17 146.892 110.518C147.78 110.743 148.89 111.192 149.777 111.642C149.333 110.743 148.89 110.069 148.446 109.17C146.671 105.124 147.336 99.9543 149.999 96.3581C150.665 95.459 151.552 94.56 152.44 93.8857C152.884 93.4362 153.328 93.2114 153.771 92.9867C153.993 92.7619 154.215 92.7619 154.437 92.5371L154.881 92.3124H155.103C155.547 92.0876 155.991 91.8629 156.656 91.8629L157.1 91.6381H157.544C157.766 91.6381 158.21 91.4133 158.431 91.4133C159.541 91.1886 160.651 91.4133 161.76 91.6381C163.979 92.0876 165.976 93.4362 167.308 95.0095C167.751 95.459 167.973 95.9086 168.195 96.3581C168.417 96.5829 168.417 96.8076 168.639 97.0324L168.861 97.4819V97.7067L169.083 98.381C169.083 98.6057 169.305 99.0552 169.305 99.28C169.527 99.7295 169.527 100.404 169.527 100.853C169.527 103.101 168.861 105.124 167.53 106.922C166.864 107.821 165.976 108.27 165.089 108.945L164.423 109.17H164.201L163.979 109.394C163.757 109.394 163.535 109.619 163.091 109.619C162.87 109.619 162.648 109.619 162.426 109.619C160.429 109.844 158.431 109.17 157.1 107.821C156.434 107.147 155.991 106.472 155.547 105.573V105.349V105.124C155.547 104.899 155.325 104.674 155.325 104.45C155.325 104 155.103 103.55 155.325 103.101C155.325 101.303 156.434 99.7295 157.544 98.8305C157.766 98.8305 157.766 98.6057 157.988 98.6057C158.21 98.6057 158.431 98.381 158.431 98.381C158.653 98.381 158.653 98.1562 158.875 98.1562C159.097 98.1562 159.319 98.1562 159.541 97.9314C160.207 97.9314 161.094 97.9314 161.76 98.1562C163.091 98.6057 163.979 99.7295 164.423 100.853C164.867 101.977 164.423 103.101 163.979 104C163.313 104.674 162.648 105.124 161.76 105.349C161.094 105.349 160.429 105.124 159.985 104.899C159.541 104.674 159.319 104.225 159.319 104C159.097 103.775 159.097 103.55 159.097 103.55C159.097 103.55 159.319 104 159.985 104.674C160.429 104.899 160.872 105.124 161.538 104.899C162.204 104.674 162.87 104.225 163.313 103.55C163.757 102.876 163.979 101.752 163.535 101.078C163.091 100.179 162.426 99.28 161.316 99.0552C160.207 98.8305 159.097 99.0552 158.21 99.7295C157.322 100.404 156.656 101.752 156.656 103.101C156.656 103.326 156.656 103.775 156.656 104C156.656 104.225 156.656 104.225 156.878 104.45L157.1 104.674V104.899C157.322 105.573 157.766 106.023 158.431 106.472C159.541 107.371 161.094 107.821 162.426 107.596C162.648 107.596 162.87 107.596 162.87 107.596L163.313 107.371L163.535 107.147H163.757L164.201 106.922C164.867 106.472 165.532 106.023 165.976 105.349C166.864 104 167.53 102.427 167.53 100.853C167.53 100.404 167.53 99.9543 167.308 99.7295L167.086 99.28L166.864 98.6057V98.381L167.086 97.9314C167.086 97.7067 166.864 97.4819 166.642 97.4819C166.42 97.0324 166.198 96.8076 165.754 96.3581C164.645 95.0095 163.091 94.1105 161.316 93.8857C160.429 93.661 159.541 93.661 158.653 93.661C158.431 93.661 158.21 93.661 157.988 93.661H157.766H157.544C157.1 93.661 156.656 93.8857 156.212 94.1105H155.991L155.769 94.3352C155.547 94.3352 155.325 94.56 155.103 94.7848C154.659 95.0095 154.437 95.2343 153.993 95.6838C153.328 96.1333 152.662 97.0324 152.218 97.7067C149.999 100.629 149.555 104.674 150.887 108.046C151.552 109.619 152.662 111.417 153.771 112.541C155.103 113.89 156.656 114.789 158.21 115.463C158.431 115.912 158.653 115.912 158.653 116.137ZM150.887 36.3467C161.094 43.7638 169.971 53.8781 176.628 66.0152C179.291 70.7352 181.51 75.68 183.507 80.8495C184.838 80.1752 186.17 79.501 187.501 78.8267C183.285 67.5886 177.515 57.2495 170.414 48.4838C165.532 42.64 160.207 37.4705 154.437 33.2C153.328 34.5486 152.218 35.4476 150.887 36.3467ZM101.624 15.4438V23.0857C101.624 24.2095 101.846 25.3333 102.733 26.2324C103.621 27.1314 104.287 27.581 105.618 27.581H115.826C116.935 27.581 117.823 27.1314 118.71 26.2324C119.598 25.3333 119.82 24.4343 119.82 23.0857V15.4438C119.82 14.32 119.598 13.421 118.71 12.7467C117.823 11.8476 117.157 11.8476 115.826 11.8476H105.618C104.509 11.8476 103.621 12.0724 102.733 12.7467C101.846 13.6457 101.624 14.32 101.624 15.4438ZM221.231 103.55C220.565 103.326 219.233 103.101 217.902 102.651C215.017 101.977 211.245 101.528 206.807 101.528C205.919 101.528 205.031 101.528 204.144 101.528V101.752C203.478 104.899 202.369 107.821 200.815 110.518C199.706 112.541 198.152 114.114 196.377 115.238C196.377 115.688 196.155 116.137 195.933 116.587C195.711 117.261 195.49 117.71 195.268 118.16C199.706 115.238 204.144 112.541 207.694 110.743C209.47 109.844 211.245 108.945 212.354 108.495C213.464 108.046 214.13 107.596 214.13 107.596C214.13 107.596 213.464 107.821 212.354 108.495C211.245 109.17 209.691 109.844 207.916 110.968C204.144 113.215 199.484 116.137 195.046 119.733C194.824 119.958 194.824 119.958 194.602 120.183C194.38 120.408 194.38 120.632 194.38 120.632C194.158 121.082 193.714 121.082 193.271 121.082C192.827 121.531 192.161 121.981 191.717 122.43C191.495 122.655 191.495 122.655 191.273 122.88C191.273 122.88 191.273 122.88 191.495 122.88C191.939 122.88 192.383 122.88 192.827 122.655C193.27 122.655 193.714 122.655 194.38 122.655C194.824 122.655 195.49 122.655 195.933 122.655C196.377 122.655 197.043 122.655 197.487 122.88C199.706 123.105 201.703 123.779 203.256 124.453C203.922 124.678 204.588 124.903 205.031 125.128C204.588 124.903 203.922 124.903 203.256 124.678C201.703 124.229 199.706 124.004 197.487 123.779C197.043 123.779 196.377 123.779 195.933 123.779C195.49 123.779 194.824 123.779 194.38 124.004C193.936 124.004 193.492 124.229 193.049 124.229C192.605 124.229 192.161 124.453 191.717 124.453C191.495 124.453 191.273 124.678 191.051 124.678C191.273 125.577 191.273 126.476 191.273 127.6C191.273 131.646 189.942 135.916 187.279 139.063C189.498 140.187 192.161 140.636 194.602 140.636C198.152 140.636 201.703 139.512 204.81 137.265C208.138 134.792 210.801 131.646 213.02 128.05C215.239 124.453 216.792 120.632 218.124 116.811C220.121 110.968 221.231 105.798 221.231 103.55Z" fill="#3C3C3C"/>
</svg>
